<svg width="282" height="32" viewBox="0 0 282 32" fill="none" xmlns="http://www.w3.org/2000/svg">
<path d="M3.00303 12.509C3.62622 13.5773 3.628 14.8967 3.01193 15.9668L0.449712 20.541H8.49425L11.1455 15.9401C11.7633 14.87 11.758 13.5506 11.1348 12.4823L8.41769 7.81543H0.273438L3.00303 12.5072V12.509Z" fill="#0B5AE4"/>
<path d="M17.3902 19.4595C16.7794 20.5332 15.6416 21.1991 14.4042 21.2027L8.23811 21.2258L0.0546875 21.2579L3.20805 26.6031C3.83124 27.659 4.96545 28.3035 6.19225 28.2982L18.3356 28.2555C19.5624 28.2519 20.6931 27.5967 21.3074 26.5354L28.2943 14.4775H20.2266L17.3919 19.4595H17.3902Z" fill="#0B5AE4"/>
<path d="M21.3008 1.71476C20.6793 0.64643 19.5327 -0.00881318 18.2987 8.95808e-05L6.03073 0.0784339C4.80215 0.0873367 3.66972 0.747922 3.06077 1.81269L0 7.15969H8.19589L13.9364 7.09381H14.2907C15.5282 7.08313 16.6713 7.73837 17.2927 8.8067L20.2111 13.8207H28.3464L21.3008 1.71476Z" fill="#0B5AE4"/>
<path d="M49.5108 16.387H39.2032V25.7456H35.6172V4.53027H39.2032V12.9915H49.5108V4.53027H53.0969V25.7456H49.5108V16.387Z" fill="#231815"/>
<path d="M61.4985 32.001C58.1867 32.001 55.1437 30.0869 54.6719 26.8872H58.3434C58.7048 28.0392 59.8942 29.1005 61.4985 29.1005C63.8542 29.1005 65.1433 27.7579 65.1433 25.3381V23.871C64.2993 25.0141 63.2524 25.7459 61.5252 25.7459C57.7166 25.7459 55.0796 23.3243 55.0796 19.1098V11.7383H58.4787V19.1098C58.4787 21.8696 59.9744 22.6691 61.7977 22.6691C63.6209 22.6691 65.1433 21.2856 65.1433 19.1098V11.7383H68.5424V25.7459C68.5424 29.599 65.633 32.001 61.4985 32.001Z" fill="#231815"/>
<path d="M85.2977 18.8887C85.2977 23.0765 82.1977 26.1515 77.9262 26.1515C73.6546 26.1515 70.5547 22.9412 70.5547 18.78V4.53027H73.9538V13.6129C74.9064 12.3344 76.5641 11.6008 78.3873 11.6008C82.2761 11.6008 85.2959 14.6741 85.2959 18.8904L85.2977 18.8887ZM77.9921 22.8593C80.2231 22.8593 81.8434 21.1731 81.8434 18.8887C81.8434 16.6042 80.1839 14.918 77.9547 14.918C75.7254 14.918 74.0107 16.6042 74.0107 18.8887C74.0107 21.1731 75.2589 22.8593 77.9921 22.8593Z" fill="#231815"/>
<path d="M95.476 11.7383V15.0839H93.8984C91.614 15.0839 90.0631 16.6882 90.0631 19.0831V25.7459H86.6641V19.0831C86.6641 13.8874 89.5201 11.7401 93.8984 11.7401H95.476V11.7383Z" fill="#231815"/>
<path d="M96.5859 6.73282C96.5859 5.53629 97.5653 4.53027 98.7885 4.53027C100.012 4.53027 100.964 5.53629 100.964 6.73282C100.964 7.92935 99.985 8.93536 98.7885 8.93536C97.592 8.93536 96.5859 7.92935 96.5859 6.73282ZM100.475 11.738V25.7456H97.0756V11.738H100.475Z" fill="#231815"/>
<path d="M113.313 13.6111V4.53027H116.712V18.7783C116.712 22.9394 113.583 26.1497 109.34 26.1497C105.097 26.1497 101.969 23.0765 101.969 18.8869C101.969 14.6972 104.96 11.5973 108.877 11.5973C110.672 11.5973 112.358 12.3309 113.311 13.6093L113.313 13.6111ZM109.369 14.9162C107.084 14.9162 105.425 16.6024 105.425 18.8869C105.425 21.1713 107.084 22.8575 109.369 22.8575C111.653 22.8575 113.257 21.3102 113.257 18.8869C113.257 16.6024 111.625 14.9162 109.369 14.9162Z" fill="#231815"/>
<path d="M132.279 7.22247V25.7456H129.321V7.22247H122.094V4.53027H139.506V7.22247H132.279Z" fill="#231815"/>
<path d="M159.368 26.0159C155.26 26.0159 152.242 22.9694 152.242 18.8083C152.242 14.6471 155.262 11.6006 159.368 11.6006C162.877 11.6006 165.543 13.8031 166.223 16.9868H163.367C162.769 15.354 161.273 14.2394 159.368 14.2394C156.838 14.2394 155.016 16.198 155.016 18.8083C155.016 21.4186 156.838 23.3772 159.368 23.3772C161.245 23.3772 162.767 22.2892 163.367 20.6565H166.223C165.516 23.8383 162.877 26.0142 159.368 26.0142V26.0159Z" fill="#231815"/>
<path d="M170.111 25.7456H167.391V4.53027H170.111V13.9138C171.091 12.4448 172.668 11.6026 174.627 11.6026C178.136 11.6026 180.503 14.1043 180.503 18.1034V25.7456H177.782V18.1034C177.782 15.7638 176.286 14.2414 174.11 14.2414C171.935 14.2414 170.111 15.7638 170.111 18.1034V25.7456Z" fill="#231815"/>
<path d="M189.125 11.6006C192.934 11.6006 195.734 14.0488 195.734 18.3186V25.7435H193.014V18.372C193.014 15.6798 191.354 14.2376 189.125 14.2376C186.896 14.2376 185.236 15.6798 185.236 18.372V25.7435H182.516V18.3186C182.516 14.0488 185.316 11.6006 189.125 11.6006Z" fill="#231815"/>
<path d="M197.039 18.8083C197.039 14.6204 200.112 11.6006 204.302 11.6006C208.492 11.6006 211.565 14.6204 211.565 18.8083C211.565 22.9961 208.518 26.0159 204.302 26.0159C200.086 26.0159 197.039 23.0246 197.039 18.8083ZM208.789 18.8083C208.789 16.1695 206.939 14.2394 204.3 14.2394C201.661 14.2394 199.813 16.1713 199.813 18.8083C199.813 21.4453 201.69 23.3772 204.3 23.3772C206.91 23.3772 208.789 21.4453 208.789 18.8083Z" fill="#231815"/>
<path d="M215.994 4.53027V25.7456H213.273V4.53027H215.994Z" fill="#231815"/>
<path d="M217.695 18.8083C217.695 14.6204 220.769 11.6006 224.958 11.6006C229.148 11.6006 232.221 14.6204 232.221 18.8083C232.221 22.9961 229.175 26.0159 224.958 26.0159C220.742 26.0159 217.695 23.0246 217.695 18.8083ZM229.445 18.8083C229.445 16.1695 227.595 14.2394 224.956 14.2394C222.318 14.2394 220.469 16.1713 220.469 18.8083C220.469 21.4453 222.346 23.3772 224.956 23.3772C227.567 23.3772 229.445 21.4453 229.445 18.8083Z" fill="#231815"/>
<path d="M240.622 11.6004C236.406 11.6004 233.359 14.6202 233.359 18.8081C233.359 22.996 236.379 25.7985 240.432 25.7985C242.316 25.7985 244.039 25.0258 245.156 23.5604L245.141 25.4228C245.122 27.9797 243.314 29.4878 240.839 29.47C238.908 29.4558 237.474 28.4373 236.888 26.9096H233.956C234.586 30.1306 237.375 31.9717 240.82 31.9984C244.872 32.0305 247.828 29.5502 247.86 25.4424L247.912 18.7796C247.912 14.6185 244.865 11.5986 240.622 11.5986V11.6004ZM240.704 23.377C238.039 23.377 236.135 21.4451 236.135 18.8081C236.135 16.1711 238.012 14.2392 240.651 14.2392C243.29 14.2392 245.166 16.1711 245.166 18.8081C245.166 21.4451 243.316 23.377 240.706 23.377H240.704Z" fill="#231815"/>
<path d="M249.266 6.65078C249.266 5.64476 250.11 4.80078 251.142 4.80078C252.175 4.80078 252.992 5.64476 252.992 6.65078C252.992 7.65679 252.148 8.52748 251.142 8.52748C250.136 8.52748 249.266 7.6835 249.266 6.65078ZM252.503 11.8731V25.7454H249.782V11.8731H252.503Z" fill="#231815"/>
<path d="M269.002 21.4205H271.858C272.321 23.0248 273.898 23.6782 275.802 23.6782C277.705 23.6782 279.065 23.0533 279.065 21.6929C279.065 20.5498 278.141 20.0602 276.834 19.98L273.788 19.7343C271.34 19.5438 269.41 18.3473 269.41 15.8723C269.41 13.0715 271.884 11.6025 275.175 11.6025C278.465 11.6025 280.94 12.9629 281.621 15.9542H278.738C278.166 14.4318 276.589 13.9137 275.175 13.9137C273.38 13.9137 272.128 14.512 272.128 15.7637C272.128 16.8783 272.999 17.3146 274.331 17.3965L277.296 17.6137C280.043 17.8309 281.783 19.0559 281.783 21.5024C281.783 24.467 279.144 26.0179 275.663 26.0179C272.182 26.0179 269.57 24.467 269 21.4205H269.002Z" fill="#231815"/>
<path d="M143.897 23.5963C141.285 23.5963 139.747 21.8496 139.421 20.3593C139.375 20.1367 139.335 19.8999 139.316 19.7076H150.615C150.724 19.218 150.779 18.7283 150.779 18.1568C150.779 14.3482 147.923 11.6025 143.926 11.6025C139.683 11.6025 136.609 14.5672 136.609 18.8102C136.609 23.0533 139.601 26.0179 143.79 26.0179C147.097 26.0179 149.803 24.3086 150.499 21.5576H147.807C147.136 23.0551 145.801 23.5981 143.899 23.5981L143.897 23.5963ZM143.951 13.8905C146.296 13.8905 147.978 15.4681 148.156 16.9139C148.197 17.2398 148.195 17.295 148.197 17.457H139.382C139.708 15.2545 141.636 13.8905 143.951 13.8905Z" fill="#231815"/>
<path d="M261.366 23.5963C258.754 23.5963 257.215 21.8496 256.89 20.3593C256.843 20.1367 256.804 19.8999 256.785 19.7076H268.084C268.193 19.218 268.248 18.7283 268.248 18.1568C268.248 14.3482 265.392 11.6025 261.394 11.6025C257.151 11.6025 254.078 14.5672 254.078 18.8102C254.078 23.0533 257.069 26.0179 261.259 26.0179C264.566 26.0179 267.272 24.3086 267.968 21.5576H265.276C264.605 23.0551 263.269 23.5981 261.368 23.5981L261.366 23.5963ZM261.419 13.8905C263.764 13.8905 265.447 15.4681 265.625 16.9139C265.666 17.2398 265.664 17.295 265.666 17.457H256.85C257.176 15.2545 259.105 13.8905 261.419 13.8905Z" fill="#231815"/>
</svg>
